<svg xmlns="http://www.w3.org/2000/svg" xmlns:xlink="http://www.w3.org/1999/xlink" width="249.445" height="31.416" viewBox="0 0 249.445 31.416">
  <defs>
    <clipPath id="clip-path">
      <rect id="Rectangle_1" data-name="Rectangle 1" width="204.893" height="20.058" fill="none"/>
    </clipPath>
    <clipPath id="clip-path-2">
      <rect id="Rectangle_6043" data-name="Rectangle 6043" width="37.192" height="31.416" fill="none"/>
    </clipPath>
  </defs>
  <g id="Group_14063" data-name="Group 14063" transform="translate(-299 -490.584)">
    <g id="Group_2" data-name="Group 2" transform="translate(343.552 496.728)">
      <g id="Group_1" data-name="Group 1" transform="translate(0 0)" clip-path="url(#clip-path)">
        <path id="Path_1" data-name="Path 1" d="M6.078,20.058V6.5h4.316V20.058H6.078Zm17.669,0h-.384l-.384-.023-.339-.046-.316-.069-.294-.069-.271-.092-.248-.092-.226-.115-.226-.115-.2-.115-.158-.138-.181-.161-.136-.138-.135-.161-.113-.185-.113-.161-.09-.184-.068-.184-.068-.185-.068-.184-.09-.392-.045-.415-.068-.784V13.741L19.5,12.358V11.09l-.023-1.222V8.646l-.023-1.268v-3.3l.045-.346.09-.346.136-.323.158-.323.2-.3.226-.277.249-.277.294-.231.339-.231.339-.184.384-.161.429-.138.429-.092L23.25.807l.5-.023H37.666V4.8h-12.7l-.2.023-.181.023-.181.046-.136.046L24.154,5l-.09.069-.09.069-.068.092-.045.092-.045.115-.023.115-.045.254V7.931H37.666V12.45H23.747v2.167l.045.254.045.208.068.184L24,15.4l.09.138.09.092.113.092.113.069.136.046.113.023.113.023.248.023H37.666v4.15Zm21.036,0H44.4l-.362-.023-.339-.046-.316-.069-.316-.069-.271-.092-.248-.092-.226-.115-.226-.115-.181-.115-.181-.138-.158-.161-.158-.138-.136-.161-.113-.185-.09-.161-.09-.184-.09-.184-.068-.185-.045-.184-.09-.392-.068-.415-.045-.784-.023-.738V12.358l-.023-1.268-.023-1.222V8.646L40.49,7.378v-3.3l.068-.346.09-.346.113-.323.158-.323.2-.3.226-.277.271-.277.294-.231.316-.231.362-.184.384-.161.407-.138.429-.092.474-.046.5-.023H56.194V4.8H46l-.2.023-.181.023-.158.046-.136.046L45.19,5l-.09.069-.09.069-.068.092-.045.092-.045.115-.023.115-.045.254v8.53l.023.277.023.254.045.208.068.184.09.138.09.138.113.092.09.092.136.069.113.046.113.023.136.023.226.023H56.194v4.15Zm13.557,0V.784h4.835V8.346h1.785l1.017-.023h2.169L69.209,8.3h1.062l.972-.023V12.75H63.176v7.309H58.341ZM72.53.715H73.8l.565.023H74.9l.542.023h.565l.61.023H77.3V20.058H72.53V.715Zm100.8.138-.339.138-.339.184-.316.161-.316.208-.316.208-.294.208-.294.231-.249.231-.249.231-.2.277-.181.253-.158.277-.136.277-.09.3-.068.3-.023.323,0,.334.027,14.306,0,.438h4.338l-.009-12.7.023-.3.068-.3.09-.253.158-.254.181-.208.226-.208.249-.184.271-.161.294-.138.339-.138.339-.092.339-.092.384-.069.361-.046.384-.023.384-.023.384.023.384.023.384.046.362.046.361.092.339.092.316.115.294.138.294.138.249.184.226.184.181.185.158.231.113.231.068.254.023.277,0,.477,0,11.9,0,.553h4.158l0-.726-.027-14.252V4.634l-.068-.461-.09-.415-.113-.392L186.026,3l-.181-.346-.249-.323-.271-.3-.339-.277-.362-.254-.384-.231-.452-.231-.5-.208-.542-.184-.565-.185-.633-.184L181.1.184l-.474-.069-.542-.069L179.518,0h-1.785l-.61.046-.587.046-.565.069-.565.069-.52.092-.474.115-.407.115-.361.138ZM80.67,3.575l-.118.206-.136.3-.09.277-.068.323-.023.3L80.3,20.058h4.361L84.6,7.355v-.3l.068-.277.092-.225c.888-2.175,7.029-2.315,7.925-.029l.027.069.09.254.023.277.068,12.934h4.135L96.956,5.441V4.957L96.888,4.5l-.09-.415-.044-.152c-.851-2.951-5.7-3.69-8.1-3.6l-.446.017L87.6.369C85.4.452,81.907,1.41,80.67,3.575m22.974,16.483h-.384l-.362-.023-.339-.046-.316-.069-.294-.069-.294-.092-.248-.092-.226-.115-.226-.115-.2-.115-.181-.138-.158-.161-.158-.138-.136-.161-.113-.185-.113-.161-.09-.184-.068-.184-.09-.185-.045-.184-.113-.392-.045-.415-.045-.392-.023-.392-.023-.369V4.427l.023-.346.045-.346.09-.346.136-.323.158-.323.181-.3.226-.277.271-.277.294-.231.316-.231.362-.184.384-.161.407-.138.452-.092.474-.046.475-.023h10.032l.5.023.475.046.429.092.429.138.384.161.339.184.339.231.294.231.249.277.226.277.2.3.158.323.136.323.09.346.045.346.023.346V15.309l-.023.369v.369l-.023.392-.045.392-.068.415-.09.392-.068.184-.068.185-.09.184-.09.184-.09.161-.136.185-.136.161-.136.138-.181.161-.181.138-.181.115-.226.115-.226.115-.271.092-.271.092-.294.069-.316.069-.339.046-.362.023H103.644ZM110.038,4.8h-5.152l-.226.023-.181.023-.158.046-.136.046L104.073,5l-.113.069-.068.069-.068.092-.068.092-.023.115-.045.115-.023.254-.023.277V14.34l.023.277.023.254.068.208.068.184.068.138.09.138.113.092.113.092.113.069.113.046.136.023.113.023.226.023h7.5l.248-.023.113-.023.113-.023.136-.046.113-.069.113-.092.09-.092.113-.138.068-.138.068-.184.045-.208.045-.254V5.81l-.023-.254-.045-.115-.045-.115-.045-.092-.068-.092-.09-.069L113.269,5l-.113-.069-.136-.046-.158-.046-.2-.023-.2-.023h-2.418ZM137.491.6h.769c5.734,0,7.514,1.695,7.959,7.445l.039.509.023.784v.669s-.006.131-.016.373c-.235,5.521-1.4,9.679-7.8,9.679H126.759V.6Zm-6.417,15.332h8.993l.226-.023.2-.115.2-.138.122-.14c1.361-1.563,1.727-9.038-.122-10.506l-.182-.144-.2-.092-.248-.046h-8.993Zm22.188,4.127h-.384l-.361-.023-.339-.046-.316-.069-.294-.069-.294-.092-.249-.092-.226-.115-.2-.115-.2-.115-.181-.138-.158-.161-.158-.138-.113-.161-.135-.185-.09-.161-.09-.184-.09-.184-.068-.185-.045-.184-.09-.392-.068-.415-.045-.784-.023-.738V12.358l-.023-1.268V9.868l-.023-1.222-.023-1.268V4.427l.023-.346.045-.346.09-.346.113-.323.158-.323.2-.3.226-.277.271-.277.294-.231.316-.231.362-.184.384-.161.407-.138.452-.092.452-.046.5-.023H167.2V4.8H154.483l-.2.023-.181.023-.158.046-.136.046L153.669,5l-.09.069-.09.069-.068.092-.045.092-.045.115-.023.115-.023.254-.023.277V7.931H167.2V12.45H153.263V14.34l.023.277.023.254.045.208.068.184.09.138.09.138.113.092.113.092.113.069.113.046.136.023.113.023.226.023H167.2v4.15Zm41.191,0V6.5h4.293V20.058h-4.293ZM0,4.542V.784H17.082V4.542Zm187.811.576V1.36h17.082V5.118Z" transform="translate(0 0)" fill="#aeb1b3" fill-rule="evenodd"/>
      </g>
    </g>
    <g id="Group_14069" data-name="Group 14069" transform="translate(299 490.584)">
      <g id="Group_14069-2" data-name="Group 14069" clip-path="url(#clip-path-2)">
        <path id="Path_83" data-name="Path 83" d="M33.759,31.416H16.811c-.006-.01-.012-.028-.019-.028a3.085,3.085,0,0,1-1.382-.579c-2.585-1.524-5.139-3.1-7.707-4.649q-3.109-1.88-6.212-3.769a3.021,3.021,0,0,1-.83-.649A2.626,2.626,0,0,1,0,20.034c.015-4.7.009-9.408.007-14.113,0-.858.011-1.716.039-2.573A2.411,2.411,0,0,1,.6,1.694,6.819,6.819,0,0,1,2.547.23,1.856,1.856,0,0,1,3.4.047C4.048.047,4.7.04,5.35.035,10.311-.008,15.272.007,20.232,0A2.791,2.791,0,0,1,21.81.461q3.8,2.446,7.568,4.936C31.6,6.861,33.836,8.32,36.037,9.821a2.515,2.515,0,0,1,.852.979c.065.131.125.264.2.392a.87.87,0,0,1,.1.436q0,5.514,0,11.027c0,1.734-.006,3.469,0,5.2a2.707,2.707,0,0,1-.719,2,7.718,7.718,0,0,1-1.814,1.308,3.388,3.388,0,0,1-.5.178c-.135.049-.281-.022-.4.066M17.441,19.711q0,2.839,0,5.678c0,.189,0,.377,0,.566a.886.886,0,0,0,.959.956q2.429,0,4.858,0c.737,0,1.473,0,2.21,0a8.069,8.069,0,0,0,2.935-.505,5.941,5.941,0,0,0,3.7-3.736,9.656,9.656,0,0,0,.466-2.612,8.839,8.839,0,0,0-.237-2.841,5.742,5.742,0,0,0-4.271-4.361,9.537,9.537,0,0,0-2.53-.313q-3.534-.008-7.067-.012a.9.9,0,0,0-1.02,1.024q0,3.077,0,6.153M11.989,4.591H4.611c-.085,0-.171,0-.255.006a.79.79,0,0,0-.733.755q-.019.666,0,1.333a.76.76,0,0,0,.487.692,1.032,1.032,0,0,0,.448.068H19.405c.067,0,.134,0,.2,0a.805.805,0,0,0,.747-.8c0-.414,0-.828,0-1.242a.757.757,0,0,0-.022-.18.82.82,0,0,0-.873-.624H11.989m1.2,10.848h-.022c0-1.661-.013-3.322.007-4.983a.778.778,0,0,0-.886-.872c-.394.025-.791,0-1.186.006a.719.719,0,0,0-.78.788q.009,5.083.022,10.166a.7.7,0,0,0,.767.756c.408,0,.815,0,1.223,0,.592,0,.854-.265.854-.861q0-2.5,0-5" transform="translate(-0.001 0)" fill="#e87d47"/>
        <path id="Path_84" data-name="Path 84" d="M265.255,207.209q0-1.853,0-3.705c0-.435.2-.642.633-.642q2.255,0,4.509.009a5.822,5.822,0,0,1,1.517.194,3.5,3.5,0,0,1,2.66,2.7,5.583,5.583,0,0,1-.165,3.234,3.719,3.719,0,0,1-2.869,2.416,5.364,5.364,0,0,1-1.267.14c-1.442,0-2.885,0-4.327,0-.51,0-.692-.183-.692-.693q0-1.825,0-3.651" transform="translate(-245.045 -187.406)" fill="#e87d47"/>
      </g>
    </g>
  </g>
</svg>
